<?xml version="1.0" encoding="UTF-8"?>
<!DOCTYPE svg PUBLIC "-//W3C//DTD SVG 1.1//EN" "http://www.w3.org/Graphics/SVG/1.1/DTD/svg11.dtd">
<!-- Creator: CorelDRAW -->
<svg xmlns="http://www.w3.org/2000/svg" xml:space="preserve" width="11.1249cm" height="4.32531cm" version="1.1" style="shape-rendering:geometricPrecision; text-rendering:geometricPrecision; image-rendering:optimizeQuality; fill-rule:evenodd; clip-rule:evenodd"
viewBox="0 0 11110.64 4319.78"
 xmlns:xlink="http://www.w3.org/1999/xlink"
 xmlns:xodm="http://www.corel.com/coreldraw/odm/2003">
 <defs>
  <style type="text/css">
   <![CDATA[
    .fil3 {fill:#FFCC00}
    .fil2 {fill:#FFCC00}
    .fil1 {fill:white}
    .fil0 {fill:white;fill-rule:nonzero}
   ]]>
  </style>
 </defs>
 <g id="Layer_x0020_1">
  <metadata id="CorelCorpID_0Corel-Layer"/>
  <path class="fil0" d="M10732.68 2140.69c97.6,0 185.96,39.58 249.91,103.54 63.97,63.96 103.54,152.33 103.54,249.91 0,97.6 -39.57,185.96 -103.54,249.92 -63.95,63.96 -152.32,103.53 -249.91,103.53 -97.59,0 -185.95,-39.57 -249.91,-103.53 -63.97,-63.96 -103.54,-152.33 -103.54,-249.92 0,-97.59 39.57,-185.95 103.54,-249.91 63.96,-63.96 152.33,-103.54 249.91,-103.54zm67.92 533.37l-77.76 -142.82 -29.47 0 0 142.82 -85.39 0 0 -359.83 137.22 0c17.28,0 34.14,1.78 50.58,5.33 16.43,3.56 31.17,9.58 44.21,18.04 13.04,8.48 23.46,19.65 31.25,33.55 7.8,13.89 11.7,31.17 11.7,51.84 0,24.4 -6.61,44.89 -19.82,61.49 -13.21,16.61 -31.51,28.46 -54.89,35.57l94.03 154 -101.65 0zm-3.56 -249.55c0,-8.47 -1.78,-15.32 -5.33,-20.57 -3.57,-5.25 -8.14,-9.32 -13.73,-12.2 -5.58,-2.88 -11.85,-4.82 -18.8,-5.84 -6.95,-1.02 -13.64,-1.52 -20.07,-1.52l-46.25 0 0 83.85 41.17 0c7.11,0 14.4,-0.6 21.85,-1.78 7.45,-1.19 14.23,-3.31 20.33,-6.35 6.09,-3.06 11.09,-7.45 14.98,-13.21 3.91,-5.76 5.85,-13.22 5.85,-22.37zm128.96 -123.7c-49.46,-49.47 -117.82,-80.08 -193.33,-80.08 -75.5,0 -143.87,30.61 -193.33,80.08 -49.47,49.47 -80.08,117.83 -80.08,193.33 0,75.51 30.61,143.88 80.08,193.33 49.47,49.47 117.83,80.08 193.33,80.08 75.51,0 143.88,-30.61 193.33,-80.08 49.47,-49.46 80.08,-117.82 80.08,-193.33 0,-75.5 -30.61,-143.87 -80.08,-193.33z"/>
  <path class="fil1" d="M10645.35 3095.88c0,166.72 -27.77,324.61 -83.34,473.62 -55.6,149.05 -136.44,279.14 -242.52,390.32 -106.1,111.14 -236.84,198.92 -392.19,263.34 -155.35,64.4 -332.8,96.62 -532.39,96.62 -151.56,0 -293.02,-18.95 -424.37,-56.84 -131.36,-37.9 -246.3,-94.75 -344.83,-170.51 -98.51,-75.79 -175.58,-169.26 -231.15,-280.41 -20.53,-41.05 -37.25,-84.38 -50.19,-129.91l-102.03 577.04 -848.79 0 352.39 -1993.11 848.79 0 -79.78 451.21c35.64,-54.01 75.72,-104.69 120.24,-151.89 104.85,-111.14 233.67,-198.92 386.51,-263.34 152.82,-64.4 327.76,-96.62 524.8,-96.62 154.08,0 298.07,18.95 431.95,56.84 363.38,102.86 666.91,445.89 666.91,833.63zm-9464.03 -1841.63c-2.55,7.6 -3.8,16.46 -3.8,26.56 0,42.93 11.38,77.65 34.11,104.2 22.74,26.51 50.52,48 83.37,64.4 32.81,16.44 68.19,27.8 106.08,34.14 37.87,6.31 72.01,9.47 102.3,9.47 63.18,0 125.06,-10.74 185.69,-32.23 60.61,-21.47 114.94,-54.94 162.93,-100.41l470.3 323.93 817.93 0 -15.85 93.36 -44.28 260.99 -0.02 0 -36.62 215.72 389.25 0 164.17 0 688.4 0 -185.66 1057.19c-5.06,22.74 -8.19,46.11 -9.49,70.1 -1.25,24.01 -1.89,43.56 -1.89,58.72 0,181.48 166.49,230.19 283.73,92.83 44.23,-51.75 75.15,-126.92 92.83,-225.44l189.49 -1053.4 855.02 0 -61.01 344.83 12.96 -14.89c98.53,-111.15 215.98,-199.52 352.39,-265.22 136.43,-65.71 284.2,-98.51 443.36,-98.51 48,0 97.27,5.04 147.77,15.14 50.52,10.12 98.5,24.62 143.99,43.59 45.47,18.95 87.16,42.3 125.06,70.09 37.87,27.77 68.21,58.1 90.92,90.95l7.58 0 71.77 -411.67 -1181.73 0 91.96 -509.97 897.26 -629.77c33.44,-24.14 67.81,-53.37 103.11,-87.75 35.27,-34.37 52.93,-69.22 52.93,-104.5 0,-39.03 -11.14,-71.52 -33.45,-97.55 -22.26,-25.98 -60.34,-38.99 -114.25,-38.99 -65.01,0 -117.5,21.36 -157.44,64.09 -39.94,42.72 -68.27,99.37 -84.96,169.97l-593.55 -86.39c24.14,-107.73 63.18,-205.26 117.03,-292.58 53.87,-87.32 118.91,-161.63 195.07,-222.92 76.14,-61.3 163.46,-108.71 261.91,-142.13 98.45,-33.45 206.21,-50.17 323.24,-50.17 92.89,0 184.9,11.16 275.91,33.47 91.03,22.26 172.76,57.11 245.22,104.5 72.46,47.33 130.97,108.63 175.58,183.89 44.54,75.26 66.85,164.89 66.85,268.91 0,91 -14.38,170.45 -43.19,238.28 -28.8,67.79 -65.49,127.68 -110.06,179.7 -44.6,52.05 -94.77,98.48 -150.5,139.32 -55.71,40.89 -110.54,78.97 -164.39,114.24l-337.18 225.74 258.84 0 443.37 0 401.63 0 -488.06 2771.08 -761.65 0 37.9 -212.2 -7.58 0c-58.12,75.79 -139.56,138.31 -244.4,187.58 -104.84,49.27 -227.99,73.89 -369.46,73.89 -131.36,0 -246.93,-22.1 -346.72,-66.31 -99.78,-44.2 -183.78,-104.84 -251.98,-181.88 -51.99,-58.75 -94.08,-125.17 -126.25,-199.31l-68.37 386.58 -852.63 0 45.58 -257.68c-148.38,199.31 -500.48,390.23 -820.38,253.89 -77.04,-32.84 -140.22,-76.43 -189.46,-130.73 -49.27,-54.3 -84.61,-116.84 -106.08,-187.57 -21.49,-70.74 -32.23,-143.99 -32.23,-219.78 0,-40.42 1.89,-82.73 5.7,-126.94 3.79,-44.21 9.46,-86.51 17.04,-126.95l102.22 -587.32 -385.73 0 -102.3 560.82c-2.55,15.15 -4.42,32.83 -5.69,53.05 -1.28,20.19 -1.89,36.62 -1.89,49.27 0,58.09 14.52,96.6 43.57,115.54 29.04,18.96 70.12,28.41 123.15,28.41 30.31,0 60.63,-2.52 90.92,-7.58 30.34,-5.03 55.57,-10.1 75.79,-15.13l-102.3 583.53c-32.86,20.21 -90.95,36.65 -174.3,49.27 -83.37,12.63 -164.23,18.95 -242.54,18.95 -83.34,0 -165.45,-7.58 -246.3,-22.74 -80.83,-15.16 -152.8,-41.69 -215.98,-79.58 -63.16,-37.9 -114.3,-89.66 -153.47,-155.35 -39.14,-65.68 -58.72,-150.29 -58.72,-253.89 0,-27.8 1.88,-59.36 5.7,-94.72 3.79,-35.37 8.21,-68.24 13.27,-98.53l132.59 -731.32 -295.55 0 42.86 -246.41 -274.37 314.95c-42.96,-45.48 -102.32,-84.01 -178.08,-115.57 -75.8,-31.59 -150.32,-47.39 -223.57,-47.39 -50.54,0 -91.58,6.94 -123.15,20.86 -31.59,13.88 -47.35,35.98 -47.35,66.31 0,25.26 13.24,44.83 39.78,58.72 26.53,13.88 72.61,29.68 138.3,47.36 93.47,22.73 178.73,51.17 255.76,85.25 77.04,34.11 143.35,75.16 198.95,123.15 55.58,48 98.51,104.84 128.83,170.51 30.32,65.7 45.48,142.74 45.48,231.14 0,133.89 -29.68,247.57 -89.05,341.04 -59.36,93.44 -135.16,169.24 -227.36,227.33 -92.19,58.12 -194.52,99.8 -306.94,125.06 -112.39,25.26 -222.92,37.9 -331.56,37.9 -143.99,0 -295.54,-20.22 -454.69,-60.64 -159.14,-40.41 -299.36,-111.15 -420.6,-212.19l431.98 -515.32c65.67,65.67 141.46,114.93 227.35,147.77 85.87,32.84 165.45,49.27 238.7,49.27 50.54,0 90.31,-6.97 119.36,-20.86 29.04,-13.88 43.59,-35.98 43.59,-66.31 0,-30.31 -19.58,-55.57 -58.75,-75.79 -39.14,-20.19 -89.05,-39.14 -149.65,-56.82 -88.44,-25.26 -167.36,-54.33 -236.85,-87.16 -69.46,-32.84 -128.83,-71.98 -178.08,-117.46 -49.27,-45.47 -87.14,-98.53 -113.66,-159.14 -26.54,-60.64 -39.81,-131.37 -39.81,-212.2 0,-123.79 27.17,-232.41 81.5,-325.88 54.3,-93.47 126.3,-170.51 215.95,-231.14 89.69,-60.61 190.74,-106.09 303.15,-136.41 112.42,-30.32 225.44,-45.48 339.14,-45.48 156.62,0 307.55,22.1 452.8,66.32 90.42,27.53 170.3,62.14 239.68,103.86l16.48 -94.69 280.38 0 70.34 -377.36c-95.2,70.2 -198.63,122.83 -310.33,157.84 -169.23,53.06 -344.81,79.59 -526.69,79.59 -141.47,0 -276.02,-18.95 -403.56,-56.85 -127.58,-37.87 -238.72,-94.71 -333.44,-170.51 -94.74,-75.76 -169.89,-169.87 -225.47,-282.29 -55.57,-112.42 -83.37,-244.42 -83.37,-395.98 0,-169.26 30.32,-327.77 90.95,-475.54 60.63,-147.79 145.89,-275.99 255.76,-384.61 109.9,-108.63 241.27,-193.88 394.11,-255.76 152.83,-61.91 321.43,-92.86 505.85,-92.86 146.53,0 277.87,20.82 394.08,62.51 116.21,41.69 214.72,101.05 295.57,178.12 80.75,76.98 143.27,170.34 187.45,280.14l14.86 -85.02c10.1,-47.99 20.83,-109.9 32.2,-185.66 11.38,-75.79 19.58,-144.01 24.65,-204.62l822.26 0 -43.75 257.67c125.94,-171.73 398.37,-303.14 612.13,-303.14 146.52,0 263.34,26.53 350.51,79.55 87.16,53.06 152.23,125.06 195.15,215.99 65.68,-80.84 145.86,-150.29 240.61,-208.38 94.74,-58.12 214.1,-87.16 358.11,-87.16 116.18,0 215.34,18.95 297.42,56.82 82.13,37.92 149.05,87.16 200.85,147.79 51.78,60.64 89.66,128.83 113.66,204.62 23.99,75.79 36.01,151.59 36.01,227.36 0,35.35 -1.91,68.82 -5.69,100.41 -3.79,31.56 -8.22,62.52 -13.27,92.83l-212.18 1208.78 -852.6 0 175.44 -998.91c11.67,-66.44 21.6,-114.46 21.6,-183.34 0,-116.21 -51.78,-174.31 -155.35,-174.31 -55.57,0 -102.93,27.15 -142.1,81.47 -39.14,54.3 -67.58,128.22 -85.25,221.66l-185.67 1053.43 -848.78 0 176.78 -999.44c10.37,-58.58 20.25,-103.15 20.25,-163.86 0,-58.12 -13.28,-104.85 -39.81,-140.19 -25.76,-34.38 -64.93,-50.23 -106.77,-52.42 -179.6,-9.49 -238.98,156.31 -266.82,302.48l-89.99 530.03 -818.44 0 45.66 -260.99 -1214.84 0zm670.69 -450.89c2.52,-7.58 3.8,-15.8 3.8,-24.65 0,-8.85 0,-15.79 0,-20.83 0,-63.15 -23.35,-113.68 -70.1,-151.59 -46.75,-37.87 -111.78,-56.82 -195.15,-56.82 -53.06,0 -100.42,8.83 -142.11,26.53 -41.66,17.68 -77.67,39.15 -107.99,64.4 -30.31,25.26 -54.94,52.42 -73.89,81.47 -18.95,29.07 -32.2,56.24 -39.8,81.5l625.24 0zm7967.29 2383.45c0,-80.83 -25.26,-149.05 -75.77,-204.62 -50.54,-55.57 -125.06,-83.34 -223.56,-83.34 -58.12,0 -110.54,12 -157.26,35.98 -46.72,24.01 -87.16,55.58 -121.24,94.75 -34.11,39.14 -59.99,85.25 -77.67,138.28 -17.71,53.05 -26.53,108.62 -26.53,166.75 0,83.34 25.25,152.2 75.76,206.5 50.54,54.3 123.79,81.47 219.78,81.47 60.63,0 114.93,-11.38 162.93,-34.11 47.99,-22.74 88.43,-54.3 121.26,-94.72 32.84,-40.42 58.1,-86.53 75.77,-138.31 17.7,-51.78 26.53,-107.99 26.53,-168.62zm-3846.49 147.77c0,80.86 25.89,149.04 77.67,204.64 51.78,55.58 126.95,83.37 225.45,83.37 58.12,0 110.54,-11.4 157.26,-34.13 46.75,-22.71 87.16,-54.3 121.24,-94.72 34.14,-40.42 60.63,-87.16 79.61,-140.19 18.93,-53.05 28.38,-108.63 28.38,-166.75 0,-83.34 -25.87,-152.2 -77.65,-206.5 -51.78,-54.33 -125.7,-81.5 -221.69,-81.5 -60.6,0 -114.93,11.37 -162.93,34.11 -47.99,22.74 -89.04,54.33 -123.15,94.74 -34.11,40.42 -59.99,86.51 -77.67,138.31 -17.68,51.78 -26.53,107.99 -26.53,168.6z"/>
  <g id="_105553179531168">
   <path class="fil2" d="M9478.99 1248.19c-106.75,0 -203.36,43.37 -273.19,113.45l-0.01 0 -655.47 657.85 928.67 0c212.99,0 385.65,-172.67 385.65,-385.66 0,-212.99 -172.66,-385.65 -385.65,-385.65z"/>
   <path class="fil3" d="M8247.24 771.3c106.74,0 203.36,-43.36 273.18,-113.45l0.01 0.01 655.48 -657.85 -928.67 0c-213,0 -385.66,172.66 -385.66,385.65 0,212.99 172.66,385.65 385.66,385.65z"/>
   <path class="fil1" d="M9213.63 112.03l-1253.07 1246.84c-150.63,149.88 -151.24,395.76 -1.36,546.4 149.89,150.63 395.77,151.25 546.41,1.36 205.65,-204.64 434.82,-424.05 627.49,-617.42 75.06,-75.33 171.51,-123.47 275.3,-138.54 23.21,-3.38 46.8,-5.09 70.59,-5.09 161.17,0 304.13,78.12 393.06,198.57 59.83,81.05 95.21,181.25 95.21,289.7 0,18.19 -1.02,36.13 -2.96,53.8l372.65 -370.82 0 313.29c0,212.51 173.87,386.37 386.38,386.37 212.5,0 386.37,-173.86 386.37,-386.37l0 -1217.08c7.47,-107.54 -29.52,-217.69 -111.07,-299.65 -149.89,-150.64 -395.76,-151.25 -546.4,-1.36l-580.18 577.3 0 -302.95c0,-0.79 -0.03,-1.57 -0.03,-2.35 -0.01,-2.5 -0.03,-4.98 -0.1,-7.48l-0.01 -0.49c-2.4,-95.42 -39.66,-190.1 -111.89,-262.67 -75.14,-75.52 -174.43,-113.33 -273.73,-113.36l-0.61 -0.01c-1.4,0 -2.79,0.04 -4.18,0.05 -1.42,0.02 -2.85,0.02 -4.26,0.06 -2.33,0.05 -4.65,0.13 -6.98,0.23l-2.22 0.08c-2.64,0.12 -5.25,0.28 -7.88,0.45l-1.26 0.08c-2.72,0.19 -5.42,0.41 -8.13,0.66l-1.21 0.11c-2.64,0.24 -5.26,0.52 -7.88,0.82l-1.62 0.19c-2.4,0.28 -4.79,0.59 -7.18,0.92l-2.71 0.39c-1.96,0.28 -3.91,0.58 -5.86,0.9 -1.47,0.23 -2.93,0.48 -4.38,0.73 -1.4,0.24 -2.79,0.48 -4.17,0.74 -2.25,0.41 -4.49,0.85 -6.73,1.3l-1.49 0.3c-71.13,14.61 -138.88,49.26 -193.9,104.02z"/>
  </g>
 </g>
</svg>
